<mxfile host="65bd71144e">
    <diagram id="XX8ALJ1K36812sOOz0n9" name="Page-1">
        <mxGraphModel dx="314" dy="1707" grid="1" gridSize="10" guides="1" tooltips="1" connect="1" arrows="1" fold="1" page="1" pageScale="1" pageWidth="850" pageHeight="1100" math="0" shadow="0">
            <root>
                <mxCell id="0"/>
                <mxCell id="1" parent="0"/>
                <mxCell id="17" value="" style="rounded=0;whiteSpace=wrap;html=1;" parent="1" vertex="1">
                    <mxGeometry x="250" y="340" width="320" height="170" as="geometry"/>
                </mxCell>
                <mxCell id="15" value="AWS Account" style="whiteSpace=wrap;html=1;aspect=fixed;rounded=0;spacingLeft=0;align=left;verticalAlign=top;" parent="1" vertex="1">
                    <mxGeometry x="90" y="-30" width="650" height="650" as="geometry"/>
                </mxCell>
                <mxCell id="14" value="&lt;div style=&quot;&quot;&gt;&lt;span style=&quot;background-color: initial;&quot;&gt;Region&lt;/span&gt;&lt;/div&gt;" style="whiteSpace=wrap;html=1;aspect=fixed;align=left;verticalAlign=top;" parent="1" vertex="1">
                    <mxGeometry x="120" width="590" height="590" as="geometry"/>
                </mxCell>
                <mxCell id="13" value="VPC" style="whiteSpace=wrap;html=1;aspect=fixed;align=left;verticalAlign=top;" parent="1" vertex="1">
                    <mxGeometry x="140" y="30" width="540" height="540" as="geometry"/>
                </mxCell>
                <mxCell id="2" value="Availability Zone" style="aspect=fixed;align=left;labelPosition=center;verticalLabelPosition=middle;verticalAlign=top;rounded=0;textDirection=ltr;horizontal=1;" parent="1" vertex="1">
                    <mxGeometry x="220" y="190" width="360" height="360" as="geometry"/>
                </mxCell>
                <mxCell id="18" value="Security Group" style="rounded=0;whiteSpace=wrap;html=1;verticalAlign=bottom;align=left;" parent="1" vertex="1">
                    <mxGeometry x="240" y="330" width="320" height="190" as="geometry"/>
                </mxCell>
                <mxCell id="4" value="public subnet" style="whiteSpace=wrap;html=1;aspect=fixed;rounded=1;verticalAlign=bottom;" parent="1" vertex="1">
                    <mxGeometry x="420" y="370" width="120" height="120" as="geometry"/>
                </mxCell>
                <mxCell id="28" style="edgeStyle=none;html=1;exitX=0.55;exitY=0.95;exitDx=0;exitDy=0;exitPerimeter=0;entryX=0.5;entryY=1;entryDx=0;entryDy=0;" parent="1" source="6" target="20" edge="1">
                    <mxGeometry relative="1" as="geometry"/>
                </mxCell>
                <mxCell id="6" value="Internet Gateway&lt;br&gt;" style="ellipse;shape=cloud;whiteSpace=wrap;html=1;rounded=1;" parent="1" vertex="1">
                    <mxGeometry x="350" y="-100" width="120" height="150" as="geometry"/>
                </mxCell>
                <mxCell id="25" style="edgeStyle=none;html=1;exitX=0.75;exitY=0;exitDx=0;exitDy=0;entryX=0.5;entryY=1;entryDx=0;entryDy=0;" parent="1" source="20" target="23" edge="1">
                    <mxGeometry relative="1" as="geometry"/>
                </mxCell>
                <mxCell id="26" style="edgeStyle=none;html=1;exitX=0.5;exitY=0;exitDx=0;exitDy=0;entryX=0.5;entryY=1;entryDx=0;entryDy=0;" parent="1" source="20" target="24" edge="1">
                    <mxGeometry relative="1" as="geometry"/>
                </mxCell>
                <mxCell id="20" value="Router" style="shape=parallelogram;perimeter=parallelogramPerimeter;whiteSpace=wrap;html=1;fixedSize=1;rounded=0;direction=west;" parent="1" vertex="1">
                    <mxGeometry x="375" y="60" width="80" height="20" as="geometry"/>
                </mxCell>
                <mxCell id="34" style="edgeStyle=none;html=1;exitX=0.5;exitY=0;exitDx=0;exitDy=0;entryX=0.625;entryY=0;entryDx=0;entryDy=0;" parent="1" source="23" target="29" edge="1">
                    <mxGeometry relative="1" as="geometry"/>
                </mxCell>
                <mxCell id="23" value="Router Table" style="shape=parallelogram;perimeter=parallelogramPerimeter;whiteSpace=wrap;html=1;fixedSize=1;rounded=0;direction=west;" parent="1" vertex="1">
                    <mxGeometry x="290" y="100" width="100" height="20" as="geometry"/>
                </mxCell>
                <mxCell id="33" style="edgeStyle=none;html=1;exitX=0.5;exitY=0;exitDx=0;exitDy=0;" parent="1" source="24" target="30" edge="1">
                    <mxGeometry relative="1" as="geometry"/>
                </mxCell>
                <mxCell id="24" value="Router Table" style="shape=parallelogram;perimeter=parallelogramPerimeter;whiteSpace=wrap;html=1;fixedSize=1;rounded=0;direction=west;" parent="1" vertex="1">
                    <mxGeometry x="430" y="100" width="100" height="20" as="geometry"/>
                </mxCell>
                <mxCell id="32" style="edgeStyle=none;html=1;exitX=0.5;exitY=1;exitDx=0;exitDy=0;" parent="1" source="29" target="3" edge="1">
                    <mxGeometry relative="1" as="geometry"/>
                </mxCell>
                <mxCell id="29" value="NACL" style="shape=hexagon;perimeter=hexagonPerimeter2;whiteSpace=wrap;html=1;fixedSize=1;rounded=0;" parent="1" vertex="1">
                    <mxGeometry x="290" y="340" width="80" height="30" as="geometry"/>
                </mxCell>
                <mxCell id="31" style="edgeStyle=none;html=1;exitX=0.5;exitY=1;exitDx=0;exitDy=0;" parent="1" source="30" edge="1">
                    <mxGeometry relative="1" as="geometry">
                        <mxPoint x="480" y="370" as="targetPoint"/>
                    </mxGeometry>
                </mxCell>
                <mxCell id="30" value="NACL" style="shape=hexagon;perimeter=hexagonPerimeter2;whiteSpace=wrap;html=1;fixedSize=1;rounded=0;" parent="1" vertex="1">
                    <mxGeometry x="440" y="340" width="80" height="30" as="geometry"/>
                </mxCell>
                <mxCell id="35" value="NAT" style="text;strokeColor=none;align=center;fillColor=none;html=1;verticalAlign=middle;whiteSpace=wrap;rounded=0;" parent="1" vertex="1">
                    <mxGeometry x="450" y="370" width="60" height="30" as="geometry"/>
                </mxCell>
                <mxCell id="3" value="private subnet" style="whiteSpace=wrap;html=1;aspect=fixed;labelBorderColor=none;labelPosition=center;verticalLabelPosition=middle;align=center;verticalAlign=bottom;horizontal=1;labelBackgroundColor=default;rounded=1;" parent="1" vertex="1">
                    <mxGeometry x="275" y="370" width="120" height="120" as="geometry"/>
                </mxCell>
                <mxCell id="38" value="Security Group" style="whiteSpace=wrap;html=1;rounded=0;verticalAlign=top;align=left;" parent="1" vertex="1">
                    <mxGeometry x="295" y="400" width="225" height="60" as="geometry"/>
                </mxCell>
                <mxCell id="37" value="Database" style="text;strokeColor=none;align=center;fillColor=none;html=1;verticalAlign=middle;whiteSpace=wrap;rounded=0;" parent="1" vertex="1">
                    <mxGeometry x="310" y="430" width="60" height="30" as="geometry"/>
                </mxCell>
                <mxCell id="36" value="EC2" style="text;strokeColor=none;align=center;fillColor=none;html=1;verticalAlign=middle;whiteSpace=wrap;rounded=0;" parent="1" vertex="1">
                    <mxGeometry x="455" y="420" width="60" height="30" as="geometry"/>
                </mxCell>
            </root>
        </mxGraphModel>
    </diagram>
</mxfile>